<svg height="512pt" viewBox="-19 0 512 512.00021" width="512pt" xmlns="http://www.w3.org/2000/svg"><path d="m470.496094 306.296875-46.132813-128.707031c-4.5625-12.734375-13.847656-22.855469-26.039062-28.703125-21.375-10.25-42.007813-.699219-42.007813-.699219l-42.230468-117.828125c-8.527344-23.78125-34.808594-36.195313-58.585938-27.667969l-20.351562 7.292969c-.003907 0-63.039063 22.597656-63.039063 22.597656-.003906 0-49.464844 17.730469-49.464844 17.730469-3.050781-4.566406-7.296875-8.242188-12.390625-10.648438-7.417968-3.5-15.75-3.90625-23.46875-1.140624l-15.160156 5.433593c-2.296875-4.90625-11.394531-17.789062-28.992188-12.039062-11.519531 3.765625-17.679687 16.203125-14.746093 27.71875l-7.214844 2.585937c-7.71875 2.765625-27.078125 12.828125-18.539063 39.257813 8.796876 27.230469 35.871094 19.753906 39.253907 18.542969l7.21875-2.589844c2.296875 4.902344 11.507812 17.691406 28.988281 12.023437 2.859375-.925781 5.378906-2.539062 7.566406-4.472656l93.3125 260.335937c-22.414062 18.722657-31.980468 50.160157-21.570312 79.210938 10.476562 29.226562 38.101562 47.46875 67.503906 47.46875 47.464844 0 68.523438-37.929688 71.207031-64.578125l141.777344-50.820313c14.78125-5.300781 23-20.839843 19.550781-35.785156 15.09375-13.679687 20.5625-34.972656 13.554688-54.519531zm-237.351563-279.660156s20.539063 57.695312 20.503907 58.011719l-25.761719-10.554688c-3.554688-1.457031-7.632813.003906-9.449219 3.386719l-13.195312 24.515625c-.230469-.222656-21.011719-57.824219-21.011719-57.824219zm-216.894531 69.78125c-7.035156-20.140625 16.59375-22.625 16.59375-22.625l10.597656 29.558593s-20.152344 13.207032-27.191406-6.933593zm56.28125 18.917969c-6.441406 2.402343-9.914062-2.9375-10.664062-5.035157l-19.210938-53.59375c-1.550781-4.328125.703125-9.128906 5.035156-10.667969 6.230469-2.207031 9.914063 2.941407 10.667969 5.039063l19.207031 53.59375c1.554688 4.328125-.726562 9.058594-5.035156 10.664063zm17.660156-20.773438-.277344.097656-13.125-36.617187 15.054688-5.398438c3.949219-1.417969 8.210938-1.207031 12.003906.582031 3.789063 1.792969 6.65625 4.953126 8.074219 8.898438l109.910156 306.644531c-14.773437.425781-27.664062 6.554688-30.484375 8.015625zm153.257813 399.113281c-29.398438 10.535157-61.886719-4.808593-72.425781-34.207031-10.535157-29.398438 7.449218-75.753906 53.261718-75.753906 23.242188 0 45.085938 14.425781 53.367188 37.53125 10.535156 29.398437-4.804688 61.890625-34.203125 72.429687zm206.152343-146.785156c-8.109374-8.773437-20.988281-12.371094-32.929687-8.089844l-27.871094 9.992188c-3.898437 1.394531-5.925781 5.691406-4.527343 9.589843 1.394531 3.898438 5.691406 5.925782 9.589843 4.53125l27.875-9.992187c3.945313-1.414063 15.148438-3.449219 20.074219 9.480469 4.925781 12.929687-5.535156 18.660156-9.480469 20.078125l-136.910156 49.078125c-.636719-5.144532-1.828125-10.292969-3.648437-15.371094-1.816407-5.078125-4.171876-9.8125-6.945313-14.1875l81.238281-29.121094c3.898438-1.398437 5.925782-5.691406 4.527344-9.589844-1.394531-3.902343-5.691406-5.929687-9.589844-4.53125l-86.109375 30.867188c-10.042969-9.976562-22.84375-16.757812-36.648437-19.515625l-109.675782-305.984375 41.539063-14.890625 20.308594 56.65625c2.304687 6.429687 7.832031 11.355469 14.132812 11.355469 6.308594 0 11.042969-2.820313 13.617188-7.605469l10.28125-19.105469 20.074219 8.226563c5.371093 2.199219 11.253906 1.132812 15.347656-2.78125 4.554687-4.351563 6.007812-11.320313 3.703125-17.746094l-20.308594-56.65625 13.296875-4.765625c15.996094-5.734375 33.667969 2.613281 39.402344 18.609375l42.234375 117.832031-138.632813 49.691406c-3.898437 1.398438-5.925781 5.691407-4.527344 9.59375 1.394532 3.898438 5.691407 5.925782 9.589844 4.527344l39.015625-13.984375 27.535157 76.828125c2.152343 5.996094 7.394531 10.386719 13.742187 10.933594 6.921875.59375 12.789063-2.664062 15.90625-7.429688l14.1875-21.679687 24.726563 7.730469c6.082031 1.898437 12.597656.226562 17.007812-4.371094 4.410156-4.59375 5.8125-11.171875 3.664062-17.171875l-27.539062-76.828125 27.800781-9.964844c8.960938-3.210937 18.632813-2.742187 27.242188 1.324219 8.605469 4.066406 15.113281 11.238281 18.328125 20.199219l46.132812 128.707031c4.390625 12.257813 1.570313 25.957031-6.777344 35.53125zm-126.847656-170.734375s27.648438 78.054688 27.171875 78.550781c-.476562.496094-31.84375-8.980469-31.84375-8.980469-3.203125-1-6.675781.246094-8.515625 3.050782 0 0-18.199218 27.246094-18.886718 27.167968-.683594-.082031-28.917969-77.925781-28.917969-77.925781zm0 0"/><path d="m235.089844 418.191406c-6.019532-2.84375-12.777344-3.175781-19.03125-.933594-6.253906 2.242188-11.265625 6.792969-14.105469 12.8125-2.84375 6.019532-3.171875 12.777344-.933594 19.03125 2.242188 6.253907 6.789063 11.265626 12.808594 14.105469 3.382813 1.597657 7 2.402344 10.628906 2.402344 2.828125 0 5.664063-.488281 8.402344-1.46875 6.253906-2.242187 11.265625-6.792969 14.105469-12.808594 2.84375-6.019531 3.171875-12.78125.933594-19.035156-2.242188-6.253906-6.792969-11.261719-12.808594-14.105469zm-1.6875 26.730469c-1.128906 2.398437-3.121094 4.207031-5.601563 5.097656-2.484375.890625-5.171875.753907-7.566406-.375-2.394531-1.132812-4.203125-3.125-5.09375-5.605469-.890625-2.480468-.757813-5.167968.375-7.5625 1.128906-2.398437 3.121094-4.207031 5.605469-5.097656 1.082031-.386718 2.207031-.582031 3.328125-.582031 1.445312 0 2.886719.320313 4.234375.957031 2.394531 1.132813 4.203125 3.125 5.09375 5.605469s.757812 5.167969-.375 7.5625zm0 0"/></svg>