<svg height="480pt" viewBox="-56 0 480 480" width="480pt" xmlns="http://www.w3.org/2000/svg"><path d="m271.40625 96c19.121094-.046875 37.464844 7.558594 50.9375 21.121094l11.3125-11.3125c-34.371094-34.386719-90.109375-34.386719-124.480469 0l11.328125 11.3125c13.460938-13.566406 31.792969-21.171875 50.902344-21.121094zm0 0"/><path d="m231.808594 128.414062 11.328125 11.296876c15.617187-15.609376 40.933593-15.609376 56.550781 0l11.328125-11.296876c-21.871094-21.871093-57.328125-21.871093-79.199219 0zm0 0"/><path d="m254.441406 151.03125c-9.375 9.371094-9.378906 24.570312-.003906 33.945312 9.371094 9.371094 24.570312 9.371094 33.941406 0 9.375-9.375 9.371094-24.574218-.003906-33.945312-9.371094-9.367188-24.5625-9.367188-33.933594 0zm22.621094 22.625c-3.121094 3.125-8.1875 3.125-11.3125 0s-3.125-8.1875 0-11.3125 8.191406-3.125 11.3125 0c3.125 3.125 3.125 8.1875 0 11.3125zm0 0"/><path d="m360 0h-352c-4.417969 0-8 3.582031-8 8v464c0 4.417969 3.582031 8 8 8h352c4.417969 0 8-3.582031 8-8v-464c0-4.417969-3.582031-8-8-8zm-8 232h-160v-216h160zm-336-216h160v216h-160zm0 232h160v216h-160zm336 216h-160v-216h160zm0 0"/><path d="m152 32h-112c-4.417969 0-8 3.582031-8 8v168c0 4.417969 3.582031 8 8 8h112c4.417969 0 8-3.582031 8-8v-168c0-4.417969-3.582031-8-8-8zm-8 168h-96v-152h96zm0 0"/><path d="m208 264h16v184h-16zm0 0"/><path d="m144 264h16v184h-16zm0 0"/></svg>